<svg xmlns="http://www.w3.org/2000/svg" width="187.049" height="148.499" viewBox="0 0 187.049 148.499">
  <g id="Component_2_1" data-name="Component 2 – 1" transform="translate(58.954)">
    <g id="Ellipse_2" data-name="Ellipse 2" transform="translate(4.5)" fill="none" stroke="currentColor" stroke-width="3">
      <circle cx="29.5" cy="29.5" r="29.5" stroke="none"/>
      <circle cx="29.5" cy="29.5" r="28" fill="none"/>
    </g>
    <line id="Line_1" data-name="Line 1" y2="56" transform="translate(34 59.5)" fill="none" stroke="currentColor" stroke-width="3"/>
    <line id="Line_2" data-name="Line 2" y1="28" x2="25" transform="translate(9 115.5)" fill="none" stroke="currentColor" stroke-width="3"/>
    <line id="Line_3" data-name="Line 3" x1="21" y1="28" transform="translate(34 115.5)" fill="none" stroke="currentColor" stroke-width="3"/>
    <line id="Line_4" data-name="Line 4" y1="28" x2="40" transform="translate(34 59.5)" fill="none" stroke="currentColor" stroke-width="3"/>
    <line id="Line_5" data-name="Line 5" x2="34" y2="28" transform="translate(0 59.5)" fill="none" stroke="currentColor" stroke-width="3"/>
  </g>
  <g id="Group_1" data-name="Group 1" transform="translate(-843.546 -102.099)">
    <g id="Ellipse_2-2" data-name="Ellipse 2" transform="translate(985 154)" fill="none" stroke="currentColor" stroke-width="3">
      <circle cx="19" cy="19" r="19" stroke="none"/>
      <circle cx="19" cy="19" r="17.5" fill="none"/>
    </g>
    <line id="Line_1-2" data-name="Line 1" y2="35.746" transform="translate(1004.203 191.98)" fill="none" stroke="currentColor" stroke-width="3"/>
    <line id="Line_2-2" data-name="Line 2" y1="17.873" x2="15.958" transform="translate(988.245 227.726)" fill="none" stroke="currentColor" stroke-width="3"/>
    <line id="Line_3-2" data-name="Line 3" x1="13.405" y1="17.873" transform="translate(1004.203 227.726)" fill="none" stroke="currentColor" stroke-width="3"/>
    <line id="Line_4-2" data-name="Line 4" y1="17.873" x2="25.533" transform="translate(1004.203 191.98)" fill="none" stroke="currentColor" stroke-width="3"/>
    <line id="Line_5-2" data-name="Line 5" x2="21.703" y2="17.873" transform="translate(982.5 191.98)" fill="none" stroke="currentColor" stroke-width="3"/>
  </g>
  <g id="Group_2" data-name="Group 2" transform="translate(-981.546 -98.099)">
    <g id="Ellipse_2-3" data-name="Ellipse 2" transform="translate(985 154)" fill="none" stroke="currentColor" stroke-width="3">
      <circle cx="19" cy="19" r="19" stroke="none"/>
      <circle cx="19" cy="19" r="17.5" fill="none"/>
    </g>
    <line id="Line_1-3" data-name="Line 1" y2="35.746" transform="translate(1004.203 191.98)" fill="none" stroke="currentColor" stroke-width="3"/>
    <line id="Line_2-3" data-name="Line 2" y1="17.873" x2="15.958" transform="translate(988.245 227.726)" fill="none" stroke="currentColor" stroke-width="3"/>
    <line id="Line_3-3" data-name="Line 3" x1="13.405" y1="17.873" transform="translate(1004.203 227.726)" fill="none" stroke="currentColor" stroke-width="3"/>
    <line id="Line_4-3" data-name="Line 4" y1="17.873" x2="25.533" transform="translate(1004.203 191.98)" fill="none" stroke="currentColor" stroke-width="3"/>
    <line id="Line_5-3" data-name="Line 5" x2="21.703" y2="17.873" transform="translate(982.5 191.98)" fill="none" stroke="currentColor" stroke-width="3"/>
  </g>
</svg>
